<?xml version="1.0" encoding="UTF-8" standalone="no"?>
<!DOCTYPE svg PUBLIC "-//W3C//DTD SVG 1.1//EN" "http://www.w3.org/Graphics/SVG/1.1/DTD/svg11.dtd">
<svg width="100%" height="100%" viewBox="0 0 9167 4584" version="1.1" xmlns="http://www.w3.org/2000/svg" xmlns:xlink="http://www.w3.org/1999/xlink" xml:space="preserve" xmlns:serif="http://www.serif.com/" style="fill-rule:evenodd;clip-rule:evenodd;stroke-linejoin:round;stroke-miterlimit:2;">
    <rect width="9167" height="4584" fill="white" />
    <g transform="matrix(1,0,0,1,122.916667,-603.472882)">
        <g transform="matrix(4.166667,0,0,4.166667,0,966.666667)">
            <path d="M131.129,471.85L66.634,618.574L0.796,619.665C2.059,617.036 280.312,0 280.312,0L355.077,0L474.176,268.805L386.791,283.016C386.791,283.016 318.932,128.387 307.684,101.706C302.678,89.825 301.744,89.095 299.145,95.037C279.645,139.628 155.966,417.026 155.966,418.343C155.966,417.026 131.129,471.85 131.129,471.85ZM726.1,379.314C727.161,379.774 726.251,2.871 726.251,2.871L863.903,4.148C1016.25,5.559 1019.37,5.936 1065.41,28.404C1107.55,48.969 1137.47,82.342 1150.09,122.874C1169.07,183.838 1156.57,246.016 1116.25,291.237C1096.85,312.998 1042.4,340.242 1042.4,340.242L1018.23,350.93C1018.23,350.93 1037.02,381.382 1089.91,461.846C1142.89,542.448 1181.62,582.286 1234.45,610.511C1245.13,616.216 1253.38,621.352 1252.79,621.922C1252.2,622.495 1238.11,620.935 1221.48,618.454C1170.5,610.854 1115.16,587.182 1073.27,555.059C1033.27,524.391 1007.81,492.492 958.331,411.097C945.823,390.519 929.037,363.426 929.037,363.426C929.037,363.426 914.668,361.651 869.453,360.744L816.423,359.68L816.54,399.092L816.66,438.504C816.66,438.504 727.161,379.774 726.1,379.314ZM966.66,56.715C956.913,54.865 919.121,53.354 882.682,53.354L816.423,53.354L816.423,310.121L881.014,310.121C916.536,310.121 953.578,308.61 963.325,306.759C1005.46,298.773 1036.6,276.081 1054.05,240.644C1064.35,219.729 1064.92,216.631 1064.86,181.811C1064.8,151.386 1063.47,141.772 1057.15,125.979C1043.03,90.719 1009.12,64.765 966.66,56.715ZM537.286,397.985C536.146,399.129 633.47,620.421 633.47,620.421L535.068,618.574L427.821,375.96C427.821,375.96 497.266,377.289 537.286,397.985ZM1743.73,0.977C1743.73,0.44 1819.45,0 1819.45,0L1932.1,256.645L1845.65,270.409C1845.65,270.409 1787.95,139.354 1776.06,110.88C1772.04,101.256 1767.84,93.376 1766.74,93.373C1765.64,93.373 1759.39,105.748 1752.85,120.88C1706.5,228.219 1592.93,479.486 1587.4,486.969C1578.41,499.121 1521.38,546.523 1504.09,556.21L1490.41,563.876C1490.41,563.876 1743.73,1.514 1743.73,0.977ZM1300.21,623.723L1300.16,3.335L1386.85,3.335L1385.15,611.905L1370.14,615.566C1361.88,617.58 1342.77,620.238 1327.67,621.475L1300.21,623.723Z" style="fill:rgb(19,52,43);"/>
        </g>
        <g transform="matrix(4.166667,0,0,4.166667,0,966.666667)">
            <path d="M537.286,397.985C497.266,377.289 427.821,375.96 427.821,375.96L387.793,377.757C303.688,381.535 223.349,408.459 154.061,456.087L131.129,471.85C131.129,471.85 155.966,417.026 155.966,418.343C155.966,419.663 162.346,415.951 170.143,410.096C218.453,373.815 289.615,337.766 344.006,322.009C396.559,306.784 432.544,302.309 484.48,304.538C556.233,307.617 612.398,322.942 686.073,359.55C707.031,369.961 725.043,378.857 726.1,379.314C727.161,379.774 816.66,438.504 816.66,438.504L855.733,464.891C995.877,559.528 1029.82,581.207 1068.57,600.834C1143.809,638.943 1212.13,656.944 1281.35,656.896C1346.21,656.851 1385.79,647.388 1448.53,616.927C1528.94,577.875 1567.21,545.929 1683.03,421.164C1705.5,396.954 1736.24,367.226 1751.32,355.098C1808.99,308.753 1879.79,283.774 1940.91,288.202C2067.31,297.359 2146,381.028 2139.87,499.771C2134.95,595.025 2071.39,670.611 1978,692.266C1949.78,698.805 1894.551,698.69 1868.82,692.039C1835.591,683.45 1797.16,662.588 1773.52,640.312L1752.07,620.088L1765.41,625.5C1857.33,662.788 1928.769,660.966 1990.48,619.768C2041.26,585.867 2064.77,526.458 2049.12,471.587C2031.58,410.116 1978.78,376.977 1904.83,381.035C1828.09,385.243 1773.04,418.103 1663.62,525.024C1625.98,561.805 1582.45,602.098 1566.89,614.569C1491.76,674.759 1406.77,713.244 1313.47,729.327C1263.31,737.977 1181.25,737.013 1133.31,727.219C1014.94,703.03 916.605,650.533 736.367,515.31C663.694,460.786 631.488,439.404 593.032,420.153C563.795,405.518 539.991,399.384 537.286,397.985Z" style="fill:rgb(212,72,53);"/>
        </g>
    </g>
    <g transform="matrix(1,0,0,1,-425.83998,131.527118)">
        <g transform="matrix(600,0,0,600,8016.598314,4081.288212)">
        </g>
        <text x="1699.798px" y="4081.288px" style="font-family:'NotoSansKR-Medium', 'Noto Sans KR Medium', sans-serif;font-weight:500;font-size:600px;fill:rgb(19,52,43);">WELLNES<tspan x="4419.598px " y="4081.288px ">S</tspan> PLA<tspan x="5974.198px 6340.198px 6673.198px " y="4081.288px 4081.288px 4081.288px ">TFO</tspan>RM</text>
    </g>
</svg>
